<svg width="25" height="24" viewBox="0 0 25 24" fill="none" xmlns="http://www.w3.org/2000/svg">
<path d="M4.28467 3L5.72724 19.1952L12.2003 21L18.6914 19.1886L20.1351 3H4.28467ZM17.1382 6.71038L16.658 12.1055L16.6594 12.1346L16.6574 12.2016V12.2011L16.3162 15.9734L16.2786 16.3086L12.2099 17.4339L12.2067 17.4368L8.14498 16.3051L7.86995 13.1863H9.86172L10.003 14.7722L12.2104 15.3704L12.2099 15.3716V15.3713L14.4255 14.7646L14.6596 12.182H10.028L9.98826 11.7454L9.89773 10.7226L9.85024 10.1734H14.8356L15.017 8.16487H7.42376L7.38402 7.72858L7.29363 6.70551L7.246 6.15631H17.1856L17.1382 6.71038Z" fill="#3996DB"/>
</svg>
