<svg width="25" height="24" viewBox="0 0 25 24" fill="none" xmlns="http://www.w3.org/2000/svg">
<path d="M2.45996 16.31L4.72359 14.9625C5.16024 15.7244 5.55778 16.3688 6.51073 16.3688C7.42386 16.3688 7.99989 16.019 7.99989 14.6497V5.35114H10.7798V14.6882C10.7798 17.5205 9.09224 18.8099 6.63021 18.8099C5.75981 18.8563 4.89556 18.6422 4.15127 18.1958C3.40699 17.7494 2.81687 17.0924 2.45996 16.31ZM12.2903 16.0162L14.5539 14.7267C14.8056 15.229 15.1963 15.6513 15.681 15.945C16.1657 16.2387 16.7248 16.3919 17.294 16.387C18.4461 16.387 19.18 15.8203 19.18 15.0387C19.18 14.1012 18.4255 13.7688 17.1547 13.2196L16.462 12.9299C14.4565 12.0903 13.1259 11.0352 13.1259 8.8082C13.1259 6.75677 14.7147 5.19442 17.1966 5.19442C18.0008 5.13707 18.8044 5.31397 19.507 5.70305C20.2097 6.09213 20.7804 6.67616 21.1478 7.38228L18.983 8.75013C18.841 8.39961 18.594 8.09984 18.2748 7.89055C17.9557 7.68126 17.5794 7.57233 17.1959 7.57818C17.0287 7.56154 16.8598 7.57938 16.7 7.63055C16.5402 7.68173 16.393 7.76511 16.2678 7.87539C16.1426 7.98566 16.0422 8.1204 15.9729 8.27102C15.9036 8.42163 15.8669 8.58481 15.8653 8.75013C15.8653 9.57084 16.3816 9.90248 17.5721 10.4104L18.2669 10.7036C20.6301 11.6999 21.96 12.7158 21.96 15.001C21.96 17.4624 19.9943 18.8106 17.3538 18.8106C14.7723 18.8106 13.1046 17.5988 12.2903 16.0162Z" fill="#EABD5F"/>
</svg>
