<svg width="25" height="24" viewBox="0 0 25 24" fill="none" xmlns="http://www.w3.org/2000/svg">
<path d="M12.7707 18.9433C12.5973 18.7901 12.4165 18.6363 12.2437 18.466C12.1056 18.5936 11.9762 18.7132 11.8393 18.8323C10.1297 20.306 8.36744 20.9196 7.32283 20.3231C6.31231 19.7523 5.99395 18.066 6.39839 15.9445C6.44153 15.7145 6.49334 15.4846 6.55382 15.2546C6.3724 15.2012 6.19964 15.1521 6.02689 15.0944C3.87584 14.3602 2.45972 13.1678 2.45972 11.9749C2.45972 10.8253 3.78108 9.70928 5.84489 8.99375C6.076 8.91686 6.31982 8.8405 6.57057 8.77215C6.51279 8.55055 6.46715 8.33749 6.42382 8.13138C5.99164 5.97785 6.29382 4.25738 7.31301 3.67802C8.37496 3.06448 10.1372 3.72073 11.9069 5.26232C12.0103 5.35577 12.1143 5.45829 12.2264 5.56028C12.3905 5.40703 12.5459 5.25378 12.71 5.11762C14.3855 3.67588 16.0518 3.07302 17.071 3.65239C18.133 4.2483 18.4444 6.08838 17.9695 8.36312C17.9435 8.50836 17.9117 8.64453 17.8747 8.7903C18.0908 8.85011 18.3063 8.91792 18.5051 8.98627C20.6122 9.7018 21.9769 10.8178 21.9596 11.9931C21.9596 13.194 20.5001 14.3784 18.2618 15.111C18.1411 15.1452 18.0203 15.1879 17.899 15.2215C17.951 15.3919 17.9851 15.5622 18.0197 15.7325C18.4686 17.9389 18.1231 19.7448 17.0785 20.3413C16.8042 20.4939 16.4887 20.5717 16.1685 20.5655C15.2112 20.5639 13.9955 19.9814 12.7707 18.9433ZM14.4635 15.8169C13.9675 16.5301 13.4223 17.213 12.8313 17.8615C12.9954 18.0217 13.1595 18.1685 13.3236 18.3047C14.7484 19.5141 16.0611 19.9659 16.6747 19.6167C16.862 19.4675 17.0152 19.2851 17.1249 19.0803C17.2347 18.8755 17.2989 18.6524 17.3137 18.4243C17.4384 17.5789 17.4032 16.72 17.2097 15.8858C17.1837 15.7325 17.1519 15.5793 17.1063 15.4175C16.2361 15.6057 15.3532 15.7391 14.4635 15.8169ZM7.22634 16.0898C6.87275 17.9053 7.13159 19.2584 7.74634 19.6081C7.96413 19.6922 8.19928 19.7311 8.43512 19.7218C8.67096 19.7126 8.90172 19.6556 9.11104 19.5547C9.92537 19.2384 10.667 18.7816 11.2962 18.2086C11.4256 18.1061 11.5464 17.987 11.6764 17.8679C11.0724 17.2192 10.5128 16.5364 10.0008 15.8233C9.11452 15.7549 8.23441 15.63 7.36674 15.4495C7.31301 15.6722 7.26968 15.8847 7.22634 16.0898ZM12.253 17.2821C12.6331 16.8646 13.0127 16.4048 13.3929 15.8938C13.0127 15.9109 12.6158 15.9194 12.2183 15.9194C11.8208 15.9194 11.4499 15.9109 11.0784 15.8938C11.4666 16.3957 11.856 16.8646 12.253 17.2821ZM10.4388 8.96812C10.1106 9.43642 9.79108 9.92928 9.4889 10.4504C9.18673 10.9615 8.91113 11.481 8.6598 11.999C8.91922 12.51 9.19539 13.0295 9.49757 13.5582C9.79974 14.0692 10.1193 14.5727 10.4474 15.0485C11.0171 15.0827 11.6134 15.1019 12.2177 15.1019C12.8221 15.1019 13.4264 15.0848 14.0054 15.0426C14.3162 14.5743 14.6357 14.0713 14.9385 13.5518C15.2412 13.0322 15.5255 12.5041 15.7762 11.9931C15.5255 11.4906 15.2406 10.9711 14.9385 10.451C14.6363 9.93088 14.3168 9.43641 13.9973 8.96865C13.4195 8.92593 12.8227 8.9003 12.2183 8.9003C11.614 8.9003 11.0177 8.9254 10.4388 8.96812ZM7.58919 14.6667C8.18172 14.7918 8.78145 14.8857 9.38548 14.9481C9.17806 14.6245 8.97122 14.3004 8.77246 13.9597C8.58238 13.6276 8.39229 13.2955 8.21954 12.9633C7.96936 13.5422 7.76194 14.114 7.58919 14.6667ZM15.6636 13.9512C15.4648 14.2919 15.2661 14.6155 15.0679 14.931C15.681 14.86 16.2893 14.7577 16.8902 14.6245C16.7026 14.0495 16.4835 13.4837 16.2338 12.9292C16.0524 13.2698 15.8623 13.6105 15.6636 13.9512ZM6.1124 9.77709C4.35077 10.3906 3.28882 11.284 3.28882 11.9835C3.32241 12.2085 3.40375 12.4252 3.52818 12.6211C3.65262 12.817 3.81769 12.9883 4.01393 13.1251C4.68794 13.649 5.46088 14.0532 6.29382 14.3175C6.44924 14.3709 6.61333 14.4115 6.77741 14.4627C7.04269 13.6248 7.36279 12.8026 7.73594 12.0006C7.36207 11.2123 7.04476 10.4021 6.78608 9.57525C6.55305 9.63292 6.32848 9.7002 6.1124 9.77709ZM16.7088 11.9835C17.092 12.7753 17.42 13.589 17.691 14.4195C17.8036 14.3853 17.9157 14.3511 18.0191 14.317C19.9449 13.6869 21.1391 12.7241 21.1455 11.9744C21.1455 11.276 20.0402 10.3725 18.2352 9.75947C18.0538 9.7002 17.8556 9.64039 17.6575 9.58059C17.3958 10.3991 17.079 11.2016 16.7088 11.9835ZM15.6555 10.0243C15.8542 10.365 16.0443 10.6977 16.2165 11.0298C16.4564 10.487 16.664 9.93242 16.8382 9.3686C16.2516 9.23688 15.6577 9.13456 15.0592 9.0621C15.2666 9.37661 15.4654 9.69219 15.6555 10.0243ZM7.59785 9.36166C7.77118 9.90685 7.97803 10.4606 8.21954 11.0309C8.39287 10.6987 8.58238 10.3666 8.77246 10.0345C8.96255 9.70233 9.16073 9.37875 9.36815 9.06317C8.74646 9.13846 8.15945 9.24045 7.59785 9.36166ZM13.2542 5.7413C13.1075 5.86892 12.9607 6.00508 12.8134 6.14178C13.4131 6.78228 13.9643 7.46026 14.4629 8.17089C15.3418 8.24929 16.2134 8.38599 17.071 8.57992C17.1057 8.4523 17.1288 8.32414 17.1577 8.19652C17.5621 6.23736 17.3131 4.73796 16.6568 4.36364C16.5127 4.28891 16.3493 4.25198 16.1841 4.25685C15.4787 4.25364 14.3959 4.76145 13.2542 5.7397V5.7413ZM7.72727 4.385C7.11425 4.73422 6.87217 6.1311 7.23501 7.97118C7.27834 8.16715 7.32168 8.36259 7.3731 8.5671C8.23188 8.38031 9.10316 8.24652 9.98116 8.16662C10.4816 7.45509 11.0358 6.77705 11.6394 6.13751C11.5446 6.04353 11.4406 5.95863 11.3459 5.87319C10.1441 4.82286 8.98855 4.26859 8.23398 4.26859C8.05664 4.263 7.88114 4.30332 7.72727 4.385ZM13.375 8.0988C13.0189 7.62256 12.6346 7.16479 12.2241 6.72755C11.8358 7.14459 11.447 7.60488 11.0685 8.0988C11.4487 8.08172 11.8283 8.07317 12.2171 8.07317C12.606 8.07317 12.9948 8.08012 13.375 8.0988ZM10.4908 12.0177C10.4827 11.7987 10.5214 11.5805 10.6047 11.3754C10.6881 11.1703 10.8144 10.9825 10.9764 10.8226C11.1385 10.6627 11.3331 10.5339 11.549 10.4437C11.765 10.3534 11.9981 10.3035 12.2351 10.2967C12.7131 10.3117 13.1651 10.5013 13.4921 10.8239C13.8191 11.1465 13.9943 11.5758 13.9794 12.0177C13.9948 12.4598 13.8197 12.8896 13.4925 13.2126C13.1654 13.5356 12.7129 13.7254 12.2345 13.7403C11.9974 13.7334 11.7642 13.6834 11.5481 13.5931C11.3321 13.5027 11.1374 13.3738 10.9754 13.2137C10.8134 13.0537 10.6872 12.8656 10.604 12.6604C10.5208 12.4551 10.4824 12.2367 10.4908 12.0177Z" fill="#3996DB"/>
</svg>
