<svg width="24" height="24" viewBox="0 0 24 24" fill="none" xmlns="http://www.w3.org/2000/svg">
<g clip-path="url(#clip0_2007_382)">
<path fill-rule="evenodd" clip-rule="evenodd" d="M0 11.9996C0 16.7495 2.76008 20.8544 6.76295 22.7992L1.03879 7.11621C0.373517 8.60801 0 10.2596 0 11.9996ZM20.1008 11.3943C20.1008 9.9108 19.5675 8.88404 19.1115 8.08527C18.5032 7.09598 17.9325 6.25895 17.9325 5.27042C17.9325 4.16713 18.7687 3.14035 19.9478 3.14035C20.001 3.14035 20.0513 3.14709 20.103 3.15009C17.9685 1.19402 15.1236 0 11.9998 0C7.80714 0 4.11928 2.15106 1.97346 5.40842C2.25547 5.41742 2.52098 5.42267 2.74599 5.42267C4.00078 5.42267 5.94409 5.27042 5.94409 5.27042C6.59061 5.23216 6.6671 6.18319 6.02058 6.25894C6.02058 6.25894 5.37032 6.33544 4.64729 6.37369L9.01694 19.3716L11.6435 11.4956L9.77446 6.37369C9.12794 6.33544 8.51517 6.25894 8.51517 6.25894C7.86865 6.22069 7.9444 5.23216 8.59167 5.27042C8.59167 5.27042 10.5732 5.42267 11.7523 5.42267C13.0071 5.42267 14.9504 5.27042 14.9504 5.27042C15.5976 5.23216 15.6734 6.18319 15.0269 6.25894C15.0269 6.25894 14.3759 6.33544 13.6536 6.37369L17.9902 19.2726L19.188 15.2735C19.7055 13.6129 20.1008 12.4211 20.1008 11.3943ZM22.53 6.24268C22.5817 6.62519 22.611 7.03471 22.611 7.47647C22.611 8.69376 22.383 10.0625 21.6982 11.7748L18.0328 22.3719C21.6007 20.2921 24 16.4265 24 11.9998C24 9.91328 23.4667 7.95198 22.53 6.24268ZM12.2105 13.0493L8.60966 23.5114C9.6852 23.828 10.8222 24.0005 11.9998 24.0005C13.3971 24.0005 14.7374 23.759 15.9846 23.3202C15.9531 23.2684 15.9231 23.2144 15.8991 23.1552L12.2105 13.0493Z" fill="#00759D"/>
</g>
<defs>
<clipPath id="clip0_2007_382">
<rect width="24" height="24" fill="white"/>
</clipPath>
</defs>
</svg>
